<svg width="36" height="43" viewBox="0 0 36 43" fill="none" xmlns="http://www.w3.org/2000/svg">
<path d="M0 3.42975C0 1.53555 1.38647 0 3.09677 0H32.9032C34.6135 0 36 1.53555 36 3.42975V39.0134C36 40.9076 34.6135 42.4431 32.9032 42.4431H3.09677C1.38647 42.4431 0 40.9076 0 39.0134V3.42975Z" fill="#F8FAFC"/>
<path d="M16.0078 9.93204C16.6944 9.93204 17.28 9.65667 17.7647 9.10594C18.2493 8.55525 18.4917 7.88979 18.4917 7.10961C18.4917 6.32947 18.2493 5.66402 17.7647 5.11329C17.28 4.5626 16.6944 4.28723 16.0078 4.28723C15.3212 4.28723 14.7356 4.5626 14.2509 5.11329C13.7662 5.66402 13.5239 6.32947 13.5239 7.10961C13.5239 7.88979 13.7662 8.55525 14.2509 9.10594C14.7356 9.65667 15.3212 9.93204 16.0078 9.93204Z" fill="#0F172A"/>
<path d="M17.7648 35.8154C15.6243 35.8154 13.8068 34.9549 12.3124 33.234C10.818 31.513 10.0709 29.4134 10.0709 26.9352C10.0709 24.2734 10.9796 22.0476 12.7971 20.2578L12.6153 17.5043C11.2421 18.5139 10.1416 19.8563 9.31362 21.5313C8.48562 23.2064 8.07166 25.0077 8.07166 26.9352C8.07166 30.0559 9.02082 32.7062 10.919 34.8861C12.8173 37.066 15.0992 38.1559 17.7648 38.1559C19.663 38.1559 21.4301 37.479 23.0658 36.1252C24.7015 34.7713 25.903 33.0848 26.6704 31.0655L25.2164 28.7938C24.8529 30.8131 23.9745 32.4882 22.5811 33.8191C21.1877 35.1499 19.5823 35.8154 17.7648 35.8154Z" fill="#0F172A"/>
<path d="M32.9103 30.3771H31.638L26.6703 22.5983C25.9837 21.2215 25.1558 20.5331 24.1864 20.5331H18.6129V17.7108H23.5806C24.4692 17.7108 24.9134 17.355 24.9134 16.6438C24.9134 15.9324 24.4692 15.5767 23.5806 15.5767H18.6129V12.7543C18.5321 11.3316 17.7041 10.6432 16.129 10.6892C14.8769 10.7351 14.251 11.4235 14.251 12.7543V22.5983C14.3721 24.021 15.2001 24.7323 16.7348 24.7323H24.1864L28.5484 31.0655L29.76 33.1995H32.9103C33.2334 33.1995 33.5161 33.0618 33.7584 32.7865C34.0008 32.5111 34.1219 32.1784 34.1219 31.7883C34.1219 31.3982 34.0008 31.0655 33.7584 30.7901C33.5161 30.5148 33.2334 30.3771 32.9103 30.3771Z" fill="#0F172A"/>
</svg>
